<svg width="1928" height="993" viewBox="0 0 1928 993" fill="none" xmlns="http://www.w3.org/2000/svg">
<mask id="mask0_111_92" style="mask-type:alpha" maskUnits="userSpaceOnUse" x="4" y="0" width="1920" height="985">
<rect x="1924" y="985" width="1920" height="985" transform="rotate(180 1924 985)" fill="#D9D9D9"/>
</mask>
<g mask="url(#mask0_111_92)">
<g opacity="0.6" filter="url(#filter0_f_111_92)">
<ellipse cx="1212.5" cy="295" rx="578.5" ry="386" transform="rotate(180 1212.5 295)" fill="#5E19F0"/>
</g>
<g opacity="0.6" filter="url(#filter1_f_111_92)">
<circle cx="1660" cy="145" r="386" transform="rotate(180 1660 145)" fill="#3719F0"/>
</g>
<g filter="url(#filter2_f_111_92)">
<path d="M1414.66 352.913C1603.29 354.441 1852.26 275.013 1820.19 -187.808C1294.25 -218.866 234.424 -280.372 202.654 -277.928C162.941 -274.873 -141.779 133.723 -153.234 145.179C-164.69 156.634 -215.858 260.502 112.536 527.808C440.931 795.113 718.156 589.479 910.611 454.49C1103.07 319.5 1226.02 351.386 1414.66 352.913Z" fill="#6849E1"/>
</g>
<mask id="mask1_111_92" style="mask-type:alpha" maskUnits="userSpaceOnUse" x="122" y="-66" width="854" height="740">
<ellipse cx="549.189" cy="303.867" rx="484.544" ry="289.781" transform="rotate(143.715 549.189 303.867)" fill="url(#paint0_radial_111_92)"/>
</mask>
<g mask="url(#mask1_111_92)">
<path d="M973.514 44.7599C1033.96 21.559 1047.24 -2.20758 1083 -57.9097L501.164 -274.072C352.907 -48.5102 95.9477 383.438 197.982 424.273C304.749 467.002 467.514 449.205 567.334 400.293C667.154 351.38 747.597 188.079 785.389 129.96C820.403 76.1145 913.066 67.9608 973.514 44.7599Z" fill="#7C7AEA"/>
<g filter="url(#filter3_f_111_92)">
<path d="M973.514 45.7599C1033.96 22.559 1047.24 -1.20758 1083 -56.9097L501.164 -273.072C352.907 -47.5102 132.467 450.165 234.501 491C315.184 523.291 461.83 445.677 537 401.079C561.302 386.661 544.105 370.321 559.334 369.293C670.241 361.806 747.597 189.079 785.389 130.96C820.403 77.1145 913.066 68.9608 973.514 45.7599Z" fill="#7C7AEA"/>
</g>
<g filter="url(#filter4_f_111_92)">
<path d="M989.514 52.7599C1049.96 29.559 1063.24 5.79242 1099 -49.9097L501.164 -274.072C352.907 -48.5102 223.947 407.438 325.981 448.273C421.691 486.577 477.112 441.099 554.5 396.654C563.441 391.519 548.996 389.358 559.334 384.293C659.154 335.38 763.597 196.079 801.389 137.96C836.403 84.1145 929.066 75.9608 989.514 52.7599Z" fill="#7C7AEA"/>
</g>
<g filter="url(#filter5_f_111_92)">
<path d="M1005.51 60.7599C1065.96 37.559 1079.24 13.7924 1115 -41.9097L501.164 -274.072C352.907 -48.5102 71.948 463.438 173.982 504.273C260.101 538.739 412.448 455.005 507.001 418.094C529.67 409.244 543.03 391.752 562.334 382.293C662.154 333.38 779.597 204.079 817.389 145.96C852.403 92.1145 945.066 83.9608 1005.51 60.7599Z" fill="#7C7AEA"/>
</g>
<g filter="url(#filter6_f_111_92)">
<path d="M1056.51 82.6098C1116.96 59.4089 1130.24 35.6423 1166 -20.0598L536.164 -268.222C387.907 -42.6603 258.948 413.287 360.982 454.122C440.117 485.792 500.289 420.629 538 397.2C551.169 389.019 513.402 375 542 375C652.5 375 631.611 258.691 813.5 182C872.683 157.047 996.066 105.811 1056.51 82.6098Z" fill="#7C7AEA"/>
</g>
</g>
<g opacity="0.6" filter="url(#filter7_f_111_92)">
<circle cx="434.5" cy="159.499" r="164.5" transform="rotate(180 434.5 159.499)" fill="#F8ECD8"/>
</g>
<g opacity="0.3" filter="url(#filter8_f_111_92)">
<ellipse cx="1161.5" cy="155.499" rx="368.5" ry="164.5" transform="rotate(180 1161.5 155.499)" fill="black"/>
</g>
<g opacity="0.6" filter="url(#filter9_f_111_92)">
<ellipse cx="817.194" cy="202.919" rx="164.5" ry="48.7174" transform="rotate(138.756 817.194 202.919)" fill="#28009B"/>
</g>
<mask id="mask2_111_92" style="mask-type:alpha" maskUnits="userSpaceOnUse" x="945" y="-372" width="1472" height="975">
<path d="M2203.32 -371.687C2258.28 -54.4954 2412.99 422.711 2417 438.285L945.322 602.154L1015.35 -163.83L2203.32 -371.687Z" fill="url(#paint1_linear_111_92)"/>
</mask>
<g mask="url(#mask2_111_92)">
<path d="M1763.94 375.299C1629.95 398.742 1503.91 341.937 1491.91 273.339C1479.9 204.741 1518.39 105.229 1662.15 80.0757C1733.39 67.6112 1811.86 6.621 1902.47 25.9725C1994.72 45.6716 1991.49 142.659 1997.55 177.263C2009.55 245.861 1897.92 351.855 1763.94 375.299Z" fill="#7371FF"/>
<g filter="url(#filter10_f_111_92)">
<path d="M1764.51 369.143C1620.81 394.285 1506.47 346.509 1496.15 287.544C1485.83 228.579 1526.51 141.713 1670.21 116.57C1741.42 104.111 1820.71 48.033 1910.45 62.5933C2001.81 77.4151 1996.29 161.262 2001.5 191.007C2011.82 249.971 1908.21 344 1764.51 369.143Z" fill="#7371FF"/>
</g>
<g filter="url(#filter11_f_111_92)">
<path d="M1760.16 369.903C1599.1 398.083 1469.65 337.164 1456.93 264.468C1444.21 191.772 1488.28 85.7394 1649.34 57.5594C1729.15 43.5948 1816.04 -30.619 1917.2 -11.009C2020.17 8.95328 2016.65 118.091 2023.07 154.763C2035.78 227.459 1921.22 341.723 1760.16 369.903Z" fill="#7371FF"/>
</g>
<g filter="url(#filter12_f_111_92)">
<path d="M1740.07 364.546C1538.1 381.506 1356.89 316.039 1342 230.957C1327.12 145.876 1411.95 36.2397 1605.11 2.44343C1700.82 -14.3043 1807.65 -128.563 1928.78 -106.092C2052.09 -83.2174 2046.07 37.4287 2053.58 80.3481C2068.47 165.429 1974.03 344.898 1740.07 364.546Z" fill="#7371FF"/>
</g>
<g filter="url(#filter13_f_111_92)">
<path d="M1667.05 341.835C1459.07 378.225 1260.84 299.934 1246.28 216.749C1231.73 133.565 1324.67 24.6235 1532.65 -11.7663C1635.71 -29.7992 1755.29 -83.4409 1884.99 -63.4414C2017.02 -43.0825 2008.52 75.3301 2015.87 117.293C2030.42 200.477 1875.02 305.446 1667.05 341.835Z" fill="#7371FF"/>
</g>
<g filter="url(#filter14_f_111_92)">
<path d="M1580.29 322.795C1365.36 360.4 1160.71 280.656 1145.83 195.574C1130.94 110.493 1227.15 -1.13364 1442.08 -38.7391C1548.58 -57.3745 1672.22 -112.471 1806.17 -92.2432C1942.53 -71.6515 1933.55 49.5138 1941.06 92.4331C1955.94 177.514 1795.21 285.189 1580.29 322.795Z" fill="#7371FF"/>
</g>
<g filter="url(#filter15_f_111_92)">
<path d="M1744.31 308.04C1556.25 340.945 1374.73 257.154 1359.84 172.073C1344.96 86.9912 1427.13 -22.1794 1615.19 -55.0842C1708.38 -71.3902 1817.58 -113.821 1935.71 -90.8247C2055.97 -67.4158 2050.64 53.1089 2058.15 96.0283C2073.04 181.11 1932.37 275.135 1744.31 308.04Z" fill="#7371FF"/>
</g>
</g>
</g>
<defs>
<filter id="filter0_f_111_92" x="222" y="-503" width="1981" height="1596" filterUnits="userSpaceOnUse" color-interpolation-filters="sRGB">
<feFlood flood-opacity="0" result="BackgroundImageFix"/>
<feBlend mode="normal" in="SourceGraphic" in2="BackgroundImageFix" result="shape"/>
<feGaussianBlur stdDeviation="206" result="effect1_foregroundBlur_111_92"/>
</filter>
<filter id="filter1_f_111_92" x="862" y="-653" width="1596" height="1596" filterUnits="userSpaceOnUse" color-interpolation-filters="sRGB">
<feFlood flood-opacity="0" result="BackgroundImageFix"/>
<feBlend mode="normal" in="SourceGraphic" in2="BackgroundImageFix" result="shape"/>
<feGaussianBlur stdDeviation="206" result="effect1_foregroundBlur_111_92"/>
</filter>
<filter id="filter2_f_111_92" x="-319" y="-433.999" width="2298" height="1248" filterUnits="userSpaceOnUse" color-interpolation-filters="sRGB">
<feFlood flood-opacity="0" result="BackgroundImageFix"/>
<feBlend mode="normal" in="SourceGraphic" in2="BackgroundImageFix" result="shape"/>
<feGaussianBlur stdDeviation="78" result="effect1_foregroundBlur_111_92"/>
</filter>
<filter id="filter3_f_111_92" x="188.44" y="-293.072" width="914.56" height="811.722" filterUnits="userSpaceOnUse" color-interpolation-filters="sRGB">
<feFlood flood-opacity="0" result="BackgroundImageFix"/>
<feBlend mode="normal" in="SourceGraphic" in2="BackgroundImageFix" result="shape"/>
<feGaussianBlur stdDeviation="10" result="effect1_foregroundBlur_111_92"/>
</filter>
<filter id="filter4_f_111_92" x="261.459" y="-302.072" width="865.541" height="792.724" filterUnits="userSpaceOnUse" color-interpolation-filters="sRGB">
<feFlood flood-opacity="0" result="BackgroundImageFix"/>
<feBlend mode="normal" in="SourceGraphic" in2="BackgroundImageFix" result="shape"/>
<feGaussianBlur stdDeviation="14" result="effect1_foregroundBlur_111_92"/>
</filter>
<filter id="filter5_f_111_92" x="116.174" y="-310.072" width="1034.83" height="858.493" filterUnits="userSpaceOnUse" color-interpolation-filters="sRGB">
<feFlood flood-opacity="0" result="BackgroundImageFix"/>
<feBlend mode="normal" in="SourceGraphic" in2="BackgroundImageFix" result="shape"/>
<feGaussianBlur stdDeviation="18" result="effect1_foregroundBlur_111_92"/>
</filter>
<filter id="filter6_f_111_92" x="272.46" y="-320.222" width="945.541" height="834.86" filterUnits="userSpaceOnUse" color-interpolation-filters="sRGB">
<feFlood flood-opacity="0" result="BackgroundImageFix"/>
<feBlend mode="normal" in="SourceGraphic" in2="BackgroundImageFix" result="shape"/>
<feGaussianBlur stdDeviation="26" result="effect1_foregroundBlur_111_92"/>
</filter>
<filter id="filter7_f_111_92" x="58" y="-217.001" width="753" height="753" filterUnits="userSpaceOnUse" color-interpolation-filters="sRGB">
<feFlood flood-opacity="0" result="BackgroundImageFix"/>
<feBlend mode="normal" in="SourceGraphic" in2="BackgroundImageFix" result="shape"/>
<feGaussianBlur stdDeviation="106" result="effect1_foregroundBlur_111_92"/>
</filter>
<filter id="filter8_f_111_92" x="581" y="-221.001" width="1161" height="753" filterUnits="userSpaceOnUse" color-interpolation-filters="sRGB">
<feFlood flood-opacity="0" result="BackgroundImageFix"/>
<feBlend mode="normal" in="SourceGraphic" in2="BackgroundImageFix" result="shape"/>
<feGaussianBlur stdDeviation="106" result="effect1_foregroundBlur_111_92"/>
</filter>
<filter id="filter9_f_111_92" x="477.372" y="-123.582" width="679.643" height="653.001" filterUnits="userSpaceOnUse" color-interpolation-filters="sRGB">
<feFlood flood-opacity="0" result="BackgroundImageFix"/>
<feBlend mode="normal" in="SourceGraphic" in2="BackgroundImageFix" result="shape"/>
<feGaussianBlur stdDeviation="106" result="effect1_foregroundBlur_111_92"/>
</filter>
<filter id="filter10_f_111_92" x="1487.09" y="52.6584" width="522.653" height="330.883" filterUnits="userSpaceOnUse" color-interpolation-filters="sRGB">
<feFlood flood-opacity="0" result="BackgroundImageFix"/>
<feBlend mode="normal" in="SourceGraphic" in2="BackgroundImageFix" result="shape"/>
<feGaussianBlur stdDeviation="3.76999" result="effect1_foregroundBlur_111_92"/>
</filter>
<filter id="filter11_f_111_92" x="1428.48" y="-40.6763" width="621.938" height="443.997" filterUnits="userSpaceOnUse" color-interpolation-filters="sRGB">
<feFlood flood-opacity="0" result="BackgroundImageFix"/>
<feBlend mode="normal" in="SourceGraphic" in2="BackgroundImageFix" result="shape"/>
<feGaussianBlur stdDeviation="13.195" result="effect1_foregroundBlur_111_92"/>
</filter>
<filter id="filter12_f_111_92" x="1302.64" y="-146.708" width="790.154" height="551.644" filterUnits="userSpaceOnUse" color-interpolation-filters="sRGB">
<feFlood flood-opacity="0" result="BackgroundImageFix"/>
<feBlend mode="normal" in="SourceGraphic" in2="BackgroundImageFix" result="shape"/>
<feGaussianBlur stdDeviation="18.8499" result="effect1_foregroundBlur_111_92"/>
</filter>
<filter id="filter13_f_111_92" x="1143.02" y="-169.631" width="975.582" height="622.413" filterUnits="userSpaceOnUse" color-interpolation-filters="sRGB">
<feFlood flood-opacity="0" result="BackgroundImageFix"/>
<feBlend mode="normal" in="SourceGraphic" in2="BackgroundImageFix" result="shape"/>
<feGaussianBlur stdDeviation="50.8948" result="effect1_foregroundBlur_111_92"/>
</filter>
<filter id="filter14_f_111_92" x="891.744" y="-349.228" width="1302.86" height="934.174" filterUnits="userSpaceOnUse" color-interpolation-filters="sRGB">
<feFlood flood-opacity="0" result="BackgroundImageFix"/>
<feBlend mode="normal" in="SourceGraphic" in2="BackgroundImageFix" result="shape"/>
<feGaussianBlur stdDeviation="126.295" result="effect1_foregroundBlur_111_92"/>
</filter>
<filter id="filter15_f_111_92" x="1241.26" y="-214.377" width="934.839" height="646.608" filterUnits="userSpaceOnUse" color-interpolation-filters="sRGB">
<feFlood flood-opacity="0" result="BackgroundImageFix"/>
<feBlend mode="normal" in="SourceGraphic" in2="BackgroundImageFix" result="shape"/>
<feGaussianBlur stdDeviation="58.4348" result="effect1_foregroundBlur_111_92"/>
</filter>
<radialGradient id="paint0_radial_111_92" cx="0" cy="0" r="1" gradientUnits="userSpaceOnUse" gradientTransform="translate(632.23 257.465) rotate(103.875) scale(346.288 557.278)">
<stop offset="0.120131" stop-color="#C4C4C4"/>
<stop offset="0.692585" stop-color="#C4C4C4" stop-opacity="0"/>
</radialGradient>
<linearGradient id="paint1_linear_111_92" x1="1815.21" y1="335.809" x2="1707.46" y2="-183.654" gradientUnits="userSpaceOnUse">
<stop stop-color="#C4C4C4"/>
<stop offset="1" stop-color="#C4C4C4" stop-opacity="0"/>
</linearGradient>
</defs>
</svg>
