<svg width="58" height="58" viewBox="0 0 58 58" fill="none" xmlns="http://www.w3.org/2000/svg">
<path d="M25.5368 10.1079L25.2864 9.85747C24.6229 9.19398 24.3074 8.24781 24.4794 7.32554C24.8538 5.31839 24.1378 3.14725 22.3214 1.77692C20.4538 0.36794 17.2781 0.416583 15.4496 1.87615C12.7798 4.00754 12.6186 7.92787 14.966 10.2752C16.333 11.6422 18.232 12.1545 20.0015 11.8182C20.9196 11.6439 21.8619 11.9752 22.5229 12.6362L22.7655 12.8789C23.7148 13.8281 23.8932 15.3077 23.1819 16.4462C22.2519 17.9347 21.5275 19.5644 21.0497 21.2952C20.3684 23.7632 22.2544 26.1973 24.8147 26.1973C26.5633 26.1973 28.1415 25.0607 28.6063 23.3752C29.5978 19.7789 32.436 16.9407 36.0323 15.9492C37.7178 15.4845 38.8544 13.9059 38.8544 12.1573C38.8544 9.59702 36.4203 7.71135 33.9526 8.39262C32.2217 8.87044 30.592 9.5948 29.1036 10.5248C27.9659 11.2356 26.486 11.0569 25.5368 10.1079ZM17.7373 5.07935C18.4058 4.41086 19.4934 4.41086 20.1619 5.07935C20.8304 5.74784 20.8304 6.83549 20.1619 7.50399C19.4934 8.17248 18.4058 8.17248 17.7373 7.50399C17.0688 6.83549 17.0688 5.74784 17.7373 5.07935Z" fill="url(#paint0_linear_81_87)"/>
<path d="M9.60409 31.96L9.35365 32.2105C8.69016 32.874 7.74399 33.1895 6.82172 33.0174C4.81457 32.643 2.64344 33.359 1.2731 35.1755C-0.135874 37.0431 -0.0872325 40.2188 1.37233 42.0472C3.50372 44.717 7.42406 44.8782 9.77142 42.5308C11.1384 41.1638 11.6507 39.2648 11.3144 37.4953C11.1398 36.5772 11.4714 35.6349 12.1321 34.974L12.3748 34.7313C13.324 33.7823 14.8036 33.6036 15.9421 34.3149C17.4306 35.245 19.0603 35.9693 20.7911 36.4471C23.2591 37.1284 25.6932 35.2425 25.6932 32.6822C25.6932 30.9338 24.5566 29.3553 22.8711 28.8905C19.2749 27.8991 16.4366 25.0608 15.4451 21.4646C14.9804 19.779 13.4019 18.6422 11.6532 18.6425C9.09293 18.6425 7.20725 21.0765 7.88853 23.5443C8.36634 25.2751 9.0907 26.9048 10.0208 28.3933C10.7318 29.5312 10.5533 31.0111 9.60409 31.96ZM4.57581 39.7596C3.90732 39.0911 3.90732 38.0034 4.57581 37.3349C5.2443 36.6664 6.33196 36.6664 7.00045 37.3349C7.66894 38.0034 7.66894 39.0911 7.00045 39.7596C6.33196 40.4283 5.2443 40.4283 4.57581 39.7596Z" fill="url(#paint1_linear_81_87)"/>
<path d="M31.7856 47.8923L32.0361 48.1428C32.6995 48.8063 33.015 49.7524 32.843 50.6747C32.4686 52.6818 33.1846 54.853 35.001 56.2233C36.8687 57.6323 40.0444 57.5837 41.8728 56.1241C44.5426 53.9927 44.7038 50.0724 42.3564 47.725C40.9894 46.358 39.0904 45.8457 37.3209 46.182C36.4028 46.3566 35.4605 46.025 34.7995 45.364L34.5569 45.1214C33.6076 44.1721 33.4292 42.6925 34.1405 41.554C35.0705 40.0656 35.7949 38.4359 36.2727 36.705C36.954 34.237 35.068 31.8029 32.5078 31.8029C30.7591 31.8029 29.1809 32.9395 28.7161 34.6251C27.7246 38.2213 24.8864 41.0595 21.2902 42.051C19.6046 42.5158 18.4678 44.0943 18.468 45.8429C18.468 48.4029 20.9021 50.2889 23.3698 49.6076C25.1007 49.1298 26.7304 48.4054 28.2188 47.4754C29.3565 46.7646 30.8364 46.9431 31.7856 47.8923ZM39.5852 52.9209C38.9167 53.5894 37.829 53.5894 37.1605 52.9209C36.492 52.2524 36.492 51.1647 37.1605 50.4963C37.829 49.8278 38.9167 49.8278 39.5852 50.4963C40.2536 51.1647 40.2536 52.2521 39.5852 52.9209Z" fill="url(#paint2_linear_81_87)"/>
<path d="M47.7188 26.0407L47.9692 25.7903C48.6327 25.1268 49.5789 24.8113 50.5011 24.9833C52.5083 25.3578 54.6794 24.6417 56.0498 22.8253C57.4587 20.9577 57.4101 17.782 55.9505 15.9536C53.8192 13.2838 49.8988 13.1225 47.5514 15.4699C46.1844 16.8369 45.6722 18.7359 46.0085 20.5054C46.1831 21.4235 45.8514 22.3658 45.1905 23.0268L44.9478 23.2694C43.9986 24.2184 42.519 24.3971 41.3805 23.6858C39.892 22.7558 38.2623 22.0314 36.5315 21.5536C34.0635 20.8723 31.6294 22.7583 31.6294 25.3186C31.6294 27.0669 32.766 28.6455 34.4515 29.1102C38.0477 30.1017 40.886 32.9399 41.8775 36.5362C42.3422 38.2217 43.9207 39.3586 45.6694 39.3583C48.2294 39.3583 50.1153 36.9242 49.4341 34.4565C48.9562 32.7256 48.2319 31.0959 47.3018 29.6075C46.5911 28.4695 46.7695 26.9897 47.7188 26.0407ZM52.7471 18.2412C53.4155 18.9097 53.4155 19.9973 52.7471 20.6658C52.0786 21.3343 50.9909 21.3343 50.3224 20.6658C49.6539 19.9973 49.6539 18.9097 50.3224 18.2412C50.9909 17.5724 52.0786 17.5724 52.7471 18.2412Z" fill="url(#paint3_linear_81_87)"/>
<defs>
<linearGradient id="paint0_linear_81_87" x1="34.6984" y1="22.0404" x2="17.042" y2="4.38401" gradientUnits="userSpaceOnUse">
<stop stop-color="#71B6FF"/>
<stop offset="1" stop-color="#006DE0"/>
</linearGradient>
<linearGradient id="paint1_linear_81_87" x1="17.2022" y1="27.1332" x2="0.449568" y2="43.8858" gradientUnits="userSpaceOnUse">
<stop stop-color="#71B6FF"/>
<stop offset="1" stop-color="#006DE0"/>
</linearGradient>
<linearGradient id="paint2_linear_81_87" x1="21.5757" y1="34.9115" x2="42.858" y2="56.1938" gradientUnits="userSpaceOnUse">
<stop stop-color="#71B6FF"/>
<stop offset="1" stop-color="#006DE0"/>
</linearGradient>
<linearGradient id="paint3_linear_81_87" x1="37.3307" y1="33.6575" x2="53.4579" y2="17.5303" gradientUnits="userSpaceOnUse">
<stop stop-color="#71B6FF"/>
<stop offset="1" stop-color="#006DE0"/>
</linearGradient>
</defs>
</svg>
