<svg width="1920" height="1103" viewBox="0 0 1920 1103" fill="none" xmlns="http://www.w3.org/2000/svg">
<g opacity="0.1">
<line x1="-1.73962e-09" y1="669.16" x2="1920" y2="669.16" stroke="white" stroke-width="1.68093"/>
<line x1="-1.73962e-09" y1="993.159" x2="1920" y2="993.159" stroke="white" stroke-width="1.68093"/>
<line x1="-1.73962e-09" y1="1074.16" x2="1920" y2="1074.16" stroke="white" stroke-width="1.68093"/>
<line x1="-1.73962e-09" y1="345.16" x2="1920" y2="345.16" stroke="white" stroke-width="1.68093"/>
<line x1="-1.73962e-09" y1="21.1595" x2="1920" y2="21.1595" stroke="white" stroke-width="1.68093"/>
<line x1="-1.73962e-09" y1="507.16" x2="1920" y2="507.16" stroke="white" stroke-width="1.68093"/>
<line x1="-1.73962e-09" y1="831.16" x2="1920" y2="831.16" stroke="white" stroke-width="1.68093"/>
<line x1="-1.73962e-09" y1="183.16" x2="1920" y2="183.16" stroke="white" stroke-width="1.68093"/>
<line x1="-1.73962e-09" y1="588.16" x2="1920" y2="588.16" stroke="white" stroke-width="1.68093"/>
<line x1="-1.73962e-09" y1="912.16" x2="1920" y2="912.16" stroke="white" stroke-width="1.68093"/>
<line x1="-1.73962e-09" y1="264.16" x2="1920" y2="264.16" stroke="white" stroke-width="1.68093"/>
<line x1="-1.73962e-09" y1="426.16" x2="1920" y2="426.16" stroke="white" stroke-width="1.68093"/>
<line x1="-1.73962e-09" y1="750.16" x2="1920" y2="750.16" stroke="white" stroke-width="1.68093"/>
<line y1="102.16" x2="1920" y2="102.16" stroke="white" stroke-width="1.68093"/>
<line x1="0.630349" y1="2.75534e-08" x2="0.630301" y2="1103" stroke="white" stroke-width="1.2607"/>
<line x1="645.63" y1="2.73314e-08" x2="645.63" y2="1103" stroke="white" stroke-width="1.2607"/>
<line x1="323.63" y1="2.73314e-08" x2="323.63" y2="1103" stroke="white" stroke-width="1.2607"/>
<line x1="968.63" y1="2.73314e-08" x2="968.63" y2="1103" stroke="white" stroke-width="1.2607"/>
<line x1="1291.63" y1="2.73314e-08" x2="1291.63" y2="1103" stroke="white" stroke-width="1.2607"/>
<line x1="161.63" y1="2.73314e-08" x2="161.63" y2="1103" stroke="white" stroke-width="1.2607"/>
<line x1="807.63" y1="2.73314e-08" x2="807.63" y2="1103" stroke="white" stroke-width="1.2607"/>
<line x1="484.63" y1="2.73314e-08" x2="484.63" y2="1103" stroke="white" stroke-width="1.2607"/>
<line x1="1130.63" y1="2.73314e-08" x2="1130.63" y2="1103" stroke="white" stroke-width="1.2607"/>
<line x1="1452.63" y1="2.73314e-08" x2="1452.63" y2="1103" stroke="white" stroke-width="1.2607"/>
<line x1="1614.63" y1="0.000183133" x2="1614.63" y2="1103" stroke="white" stroke-width="1.2607"/>
<line x1="1776.63" y1="2.73314e-08" x2="1776.63" y2="1103" stroke="white" stroke-width="1.2607"/>
<line x1="81.6303" y1="2.73314e-08" x2="81.6303" y2="1103" stroke="white" stroke-width="1.2607"/>
<line x1="726.63" y1="2.73314e-08" x2="726.63" y2="1103" stroke="white" stroke-width="1.2607"/>
<line x1="403.63" y1="2.73314e-08" x2="403.63" y2="1103" stroke="white" stroke-width="1.2607"/>
<line x1="1049.63" y1="2.73314e-08" x2="1049.63" y2="1103" stroke="white" stroke-width="1.2607"/>
<line x1="1372.63" y1="2.73314e-08" x2="1372.63" y2="1103" stroke="white" stroke-width="1.2607"/>
<line x1="242.63" y1="2.73314e-08" x2="242.63" y2="1103" stroke="white" stroke-width="1.2607"/>
<line x1="888.63" y1="2.73314e-08" x2="888.63" y2="1103" stroke="white" stroke-width="1.2607"/>
<line x1="565.63" y1="2.73314e-08" x2="565.63" y2="1103" stroke="white" stroke-width="1.2607"/>
<line x1="1210.63" y1="2.73314e-08" x2="1210.63" y2="1103" stroke="white" stroke-width="1.2607"/>
<line x1="1533.63" y1="2.73314e-08" x2="1533.63" y2="1103" stroke="white" stroke-width="1.2607"/>
<line x1="1695.63" y1="2.73314e-08" x2="1695.63" y2="1103" stroke="white" stroke-width="1.2607"/>
<line x1="1856.63" y1="2.73314e-08" x2="1856.63" y2="1103" stroke="white" stroke-width="1.2607"/>
</g>
</svg>
